<?xml version="1.0" encoding="UTF-8"?><svg id="Layer_1" xmlns="http://www.w3.org/2000/svg" viewBox="0 0 16 16"><defs><style>.cls-1{fill:#0f52a2;}</style></defs><path class="cls-1" d="m12,15.75H1c-.41,0-.75-.34-.75-.75V4c0-.41.34-.75.75-.75h4.29c.41,0,.75.34.75.75s-.34.75-.75.75H1.75v9.5h9.5v-3.38c0-.41.34-.75.75-.75s.75.34.75.75v4.13c0,.41-.34.75-.75.75ZM14.69,1.71c-.08-.18-.22-.32-.4-.4-.09-.04-.19-.06-.29-.06h-6c-.41,0-.75.34-.75.75s.34.75.75.75h4.19l-6.22,6.22c-.29.29-.29.77,0,1.06.15.15.34.22.53.22s.38-.07.53-.22l6.22-6.22v4.19c0,.41.34.75.75.75s.75-.34.75-.75V2c0-.1-.02-.2-.06-.29Z"/></svg>